<svg xmlns="http://www.w3.org/2000/svg" xmlns:xlink="http://www.w3.org/1999/xlink" width="121.5" height="63" viewBox="0 0 121.5 63"><svg id="logo" width="121.5" height="34.875" viewBox="0 0 121.5 34.875" y="0"><defs><style>.cls-1,.cls-2{fill:#dbeff9;stroke:#57778e;stroke-linejoin:round;stroke-width:3px;fill-rule:evenodd}.cls-2{fill:#a5c4d9}.cls-3{font-size:38px;fill:#57778e;font-family:&quot;Open Sans&quot;;font-weight:800;text-transform:uppercase}</style></defs><g id="Sign"><path id="_2" data-name="2" class="cls-1" d="M118.167 45.951l9.146-14.867 9.147 14.867h-18.293z" transform="translate(-28 -12.563)"></path><path id="_1" data-name="1" class="cls-2" d="M121.014 14.047l18 30.487 9-15.244-9-15.243h-18z" transform="translate(-28 -12.563)"></path></g><text id="T" class="cls-3" transform="matrix(.908 0 0 .908 65.48 29.748)">T</text><text id="S" class="cls-3" transform="matrix(.908 0 0 .908 42.975 29.748)">S</text><text id="E" class="cls-3" transform="matrix(.908 0 0 .908 21.747 29.748)">E</text><text id="T-2" data-name="T" class="cls-3" transform="matrix(.908 0 0 .908 .334 29.748)">T</text></svg><svg width="17" height="17.031" viewBox="0 0 17 17.031" id="magnifier" y="35"><defs><style>.cls-4{fill:#57778e;fill-rule:evenodd}</style></defs><path id="Magnifier" class="cls-4" d="M214.417 147.593l3.695-3.695c.02-.02.034-.043.052-.064a6.99 6.99 0 1 0-2-2c-.02.018-.043.032-.063.051l-3.695 3.7a1.421 1.421 0 0 0 2.011 2.008zm2.584-9.6a5.007 5.007 0 1 1 5.007 5.007 5.007 5.007 0 0 1-5.008-5.008z" transform="translate(-212 -131)"></path></svg><svg id="plus" width="10" height="10" viewBox="0 0 10 10" y="53"><defs><style>.cls-5{fill:#fff}</style></defs><rect id="_2" data-name="2" class="cls-5" y="4" width="10" height="2" rx="1" ry="1"></rect><rect id="_1" data-name="1" class="cls-5" x="4" width="2" height="10" rx="1" ry="1"></rect></svg></svg>