<svg xmlns="http://www.w3.org/2000/svg" xmlns:xlink="http://www.w3.org/1999/xlink" width="121.5" height="102" viewBox="0 0 121.5 102"><svg width="11.969" height="9.031" viewBox="0 0 11.969 9.031" id="check" y="0"><defs><style>.cls-6{fill:#fff;fill-rule:evenodd}</style></defs><path id="Check" class="cls-6" d="M212.678 235.869l-6.8 6.822a1.1 1.1 0 0 1-1.557 0l-3-3.006a1.1 1.1 0 1 1 1.557-1.562l2.218 2.225 6.024-6.041a1.1 1.1 0 0 1 1.558 1.562z" transform="translate(-201.031 -234)"></path></svg><svg width="10.344" height="10.719" viewBox="0 0 10.344 10.719" id="close" y="10"><defs><style>.cls-9{filter:url(#filter)}.cls-10{fill:red;fill-rule:evenodd}</style><filter id="filter" filterUnits="userSpaceOnUse"><feFlood result="flood" flood-color="#57778e"></feFlood><feComposite result="composite" operator="in" in2="SourceGraphic"></feComposite><feBlend result="blend" in2="SourceGraphic"></feBlend></filter></defs><g id="Close" class="cls-9"><path id="_2" data-name="2" class="cls-10" d="M360.889 134.611a1 1 0 0 1 0 1.414l-8.364 8.364a1 1 0 1 1-1.414-1.414l8.364-8.364a1 1 0 0 1 1.414 0z" transform="translate(-350.844 -133.969)"></path><path id="_1" data-name="1" class="cls-10" d="M351.286 134.256a.96.96 0 0 0 0 1.356l8.1 8.1a.959.959 0 1 0 1.356-1.356l-8.1-8.1a.96.96 0 0 0-1.356 0z" transform="translate(-350.844 -133.969)"></path></g></svg><svg id="logo" width="121.5" height="34.875" viewBox="0 0 121.5 34.875" y="21"><defs><style>.cls-1,.cls-2{fill:#dbeff9;stroke:#57778e;stroke-linejoin:round;stroke-width:3px;fill-rule:evenodd}.cls-2{fill:#a5c4d9}.cls-3{font-size:38px;fill:#57778e;font-family:&quot;Open Sans&quot;;font-weight:800;text-transform:uppercase}</style></defs><g id="Sign"><path id="_2" data-name="2" class="cls-1" d="M118.167 45.951l9.146-14.867 9.147 14.867h-18.293z" transform="translate(-28 -12.563)"></path><path id="_1" data-name="1" class="cls-2" d="M121.014 14.047l18 30.487 9-15.244-9-15.243h-18z" transform="translate(-28 -12.563)"></path></g><text id="T" class="cls-3" transform="matrix(.908 0 0 .908 65.48 29.748)">T</text><text id="S" class="cls-3" transform="matrix(.908 0 0 .908 42.975 29.748)">S</text><text id="E" class="cls-3" transform="matrix(.908 0 0 .908 21.747 29.748)">E</text><text id="T-2" data-name="T" class="cls-3" transform="matrix(.908 0 0 .908 .334 29.748)">T</text></svg><svg width="17" height="17.031" viewBox="0 0 17 17.031" id="magnifier" y="56"><defs><style>.cls-4{fill:#57778e;fill-rule:evenodd}</style></defs><path id="Magnifier" class="cls-4" d="M214.417 147.593l3.695-3.695c.02-.02.034-.043.052-.064a6.99 6.99 0 1 0-2-2c-.02.018-.043.032-.063.051l-3.695 3.7a1.421 1.421 0 0 0 2.011 2.008zm2.584-9.6a5.007 5.007 0 1 1 5.007 5.007 5.007 5.007 0 0 1-5.008-5.008z" transform="translate(-212 -131)"></path></svg><svg id="minus" width="18" height="18" viewBox="0 0 18 18" y="74"><defs><style>.cls-7{fill:#57778e}.cls-8{fill:#fff}</style></defs><circle id="bg" class="cls-7" cx="9" cy="9" r="9"></circle><g id="Plus-icon-2" data-name="Plus-icon"><rect id="_2" data-name="2" class="cls-8" x="4" y="8" width="10" height="2" rx="1" ry="1"></rect></g></svg><svg id="plus" width="10" height="10" viewBox="0 0 10 10" y="92"><defs><style>.cls-5{fill:#fff}</style></defs><rect id="_2" data-name="2" class="cls-5" y="4" width="10" height="2" rx="1" ry="1"></rect><rect id="_1" data-name="1" class="cls-5" x="4" width="2" height="10" rx="1" ry="1"></rect></svg></svg>